# xmcd
#
# Track frame offsets:
#	150
#	13316
#	24112
#	35994
#	51729
#	58829
#	76188
#	84420
#	94824
#	110515
#	119561
#	132800
#	148856
#
# Disc length: 2077 seconds
#
# Revision: 1
# Processed by: cddbd v1.5.2PL0 Copyright (c) Steve Scherf et al.
# Submitted via: audiograbber 1.83.01
#
DISCID=b9081b0d
DTITLE=Angelika Mitschan - Colours Of Life
DYEAR=1997
DGENRE=Blues
TTITLE0=Among The Trees
TTITLE1=An Evening With You
TTITLE2=Silence
TTITLE3=Angie
TTITLE4=Clairvojance
TTITLE5=Give Me Wings
TTITLE6=Brandenberg Rag
TTITLE7=Lady Nothings Toy Puffe
TTITLE8=A Brighter Day
TTITLE9=Bicycle Tune
TTITLE10=Man Killing Broad
TTITLE11=My Everything
TTITLE12=Drumming The Blues Away
EXTD=A friend that passed away way too young ...
EXTT0=Music and lyrics by Michael Chapman
EXTT1=Music and lyrics by Angelika Mitschan
EXTT2=Music and lyrics by Angelika Mitschan
EXTT3=Music and lyrics by Davey Graham
EXTT4=Music and lyrics by Peter Ratzenbeck
EXTT5=Music and lyrics by Angelika Mitschan
EXTT6=Music and lyrics by Peter Ratzenbeck
EXTT7=Music and lyrics by John Renbourn
EXTT8=Music and lyrics by Angelika Mitschan
EXTT9=Music and lyrics by John Renbourn
EXTT10=Music and lyrics by Robert Johnson
EXTT11=Music and lyrics by Angelika Mitschan
EXTT12=Music and lyrics by Angelika Mitschan
PLAYORDER=
